<?xml version="1.0" encoding="iso-8859-1"?>
<!-- Generator: Adobe Illustrator 19.0.0, SVG Export Plug-In . SVG Version: 6.00 Build 0)  -->
<svg version="1.1" id="Layer_1" xmlns="http://www.w3.org/2000/svg" xmlns:xlink="http://www.w3.org/1999/xlink" x="0px" y="0px"
	 viewBox="0 0 512 512" style="enable-background:new 0 0 512 512;" xml:space="preserve">
<g>
	<g>
		<path d="M438.044,250.311h-5.689V39.822C432.356,17.864,414.491,0,392.533,0H119.467C97.509,0,79.644,17.864,79.644,39.822
			v210.489h-5.689c-28.232,0-51.2,22.967-51.2,51.2c0,17.846,9.184,33.583,23.068,42.749
			c4.431,61.868,56.177,110.851,119.154,110.851c9.411,0,17.067,7.655,17.067,17.067V512h147.911v-39.822
			c0-9.412,7.656-17.067,17.067-17.067c62.977,0,114.723-48.984,119.154-110.851c13.884-9.166,23.068-24.903,23.068-42.749
			C489.244,273.278,466.276,250.311,438.044,250.311z M113.778,39.822c0-3.137,2.552-5.689,5.689-5.689h273.067
			c3.137,0,5.689,2.552,5.689,5.689v210.489H113.778V39.822z M347.022,420.978c-28.232,0-51.2,22.967-51.2,51.2v5.689h-79.644
			v-5.689c0-28.233-22.968-51.2-51.2-51.2c-41.209,0-75.687-29.365-83.616-68.267h349.276
			C422.709,391.613,388.231,420.978,347.022,420.978z M438.044,318.578H73.956c-9.411,0-17.067-7.655-17.067-17.067
			s7.656-17.067,17.067-17.067h364.089c9.411,0,17.067,7.655,17.067,17.067S447.455,318.578,438.044,318.578z"/>
	</g>
</g>
<g>
</g>
<g>
</g>
<g>
</g>
<g>
</g>
<g>
</g>
<g>
</g>
<g>
</g>
<g>
</g>
<g>
</g>
<g>
</g>
<g>
</g>
<g>
</g>
<g>
</g>
<g>
</g>
<g>
</g>
</svg>
