<svg fill="none" xmlns="http://www.w3.org/2000/svg">
<path fill-rule="evenodd" clip-rule="evenodd" d="M26.125 9.625H15.125V20.625H4.125V9.625H1.375V23.375H31.625V15.125C31.625 12.0862 29.1637 9.625 26.125 9.625ZM13.75 15.125C13.75 17.4075 11.9075 19.25 9.625 19.25C7.3425 19.25 5.5 17.4075 5.5 15.125C5.5 12.8425 7.3425 11 9.625 11C11.9075 11 13.75 12.8425 13.75 15.125ZM11 15.125C11 14.3688 10.3813 13.75 9.625 13.75C8.86875 13.75 8.25 14.3688 8.25 15.125C8.25 15.8812 8.86875 16.5 9.625 16.5C10.3813 16.5 11 15.8812 11 15.125ZM17.875 20.625H28.875V15.125C28.875 13.6125 27.6375 12.375 26.125 12.375H17.875V20.625Z" fill="#6A6D72"/>
</svg>
