<?xml version="1.0" encoding="iso-8859-1"?>
<!-- Generator: Adobe Illustrator 19.0.0, SVG Export Plug-In . SVG Version: 6.00 Build 0)  -->
<svg version="1.1" id="Capa_1" xmlns="http://www.w3.org/2000/svg" xmlns:xlink="http://www.w3.org/1999/xlink" x="0px" y="0px"
	 viewBox="0 0 477.867 477.867" style="enable-background:new 0 0 477.867 477.867;" xml:space="preserve">
<g>
	<g>
		<path d="M392.533,0h-307.2C38.228,0.056,0.056,38.228,0,85.333v307.2c0,9.426,7.641,17.067,17.067,17.067H51.2v17.067
			c0,28.277,22.923,51.2,51.2,51.2s51.2-22.923,51.2-51.2V409.6h170.667v17.067c0,28.277,22.923,51.2,51.2,51.2
			c28.277,0,51.2-22.923,51.2-51.2V409.6H460.8c9.426,0,17.067-7.641,17.067-17.067v-307.2C477.81,38.228,439.638,0.056,392.533,0z
			 M119.467,426.667c0,9.426-7.641,17.067-17.067,17.067s-17.067-7.641-17.067-17.067V409.6h34.133V426.667z M392.533,426.667
			c0,9.426-7.641,17.067-17.067,17.067c-9.426,0-17.067-7.641-17.067-17.067V409.6h34.133V426.667z M443.733,375.467h-409.6V85.333
			c0-28.277,22.923-51.2,51.2-51.2h307.2c28.277,0,51.2,22.923,51.2,51.2V375.467z"/>
	</g>
</g>
<g>
	<g>
		<path d="M392.533,68.267h-307.2c-9.426,0-17.067,7.641-17.067,17.067v102.4c0,9.426,7.641,17.067,17.067,17.067h307.2
			c9.426,0,17.067-7.641,17.067-17.067v-102.4C409.6,75.908,401.959,68.267,392.533,68.267z M221.867,170.667H102.4V102.4h119.467
			V170.667z M375.467,170.667H256V102.4h119.467V170.667z"/>
	</g>
</g>
<g>
	<g>
		<circle cx="136.533" cy="290.133" r="34.133"/>
	</g>
</g>
<g>
	<g>
		<circle cx="341.333" cy="290.133" r="34.133"/>
	</g>
</g>
<g>
</g>
<g>
</g>
<g>
</g>
<g>
</g>
<g>
</g>
<g>
</g>
<g>
</g>
<g>
</g>
<g>
</g>
<g>
</g>
<g>
</g>
<g>
</g>
<g>
</g>
<g>
</g>
<g>
</g>
</svg>
