<svg width="35" height="35" viewBox="0 0 35 35" fill="none" xmlns="http://www.w3.org/2000/svg">
<path fill-rule="evenodd" clip-rule="evenodd" d="M27.5917 7.30626C27.3 6.44584 26.4833 5.83334 25.5208 5.83334H9.47917C8.51667 5.83334 7.71458 6.44584 7.40833 7.30626L4.375 16.0417V27.7083C4.375 28.5104 5.03125 29.1667 5.83333 29.1667H7.29167C8.09375 29.1667 8.75 28.5104 8.75 27.7083V26.25H26.25V27.7083C26.25 28.5104 26.9062 29.1667 27.7083 29.1667H29.1667C29.9688 29.1667 30.625 28.5104 30.625 27.7083V16.0417L27.5917 7.30626ZM9.98953 8.75001H24.9958L26.5708 13.2854H8.41453L9.98953 8.75001ZM7.29166 23.3334H27.7083V16.0417H7.29166V23.3334ZM10.9375 17.5C9.72938 17.5 8.75 18.4794 8.75 19.6875C8.75 20.8956 9.72938 21.875 10.9375 21.875C12.1456 21.875 13.125 20.8956 13.125 19.6875C13.125 18.4794 12.1456 17.5 10.9375 17.5ZM21.875 19.6875C21.875 18.4794 22.8544 17.5 24.0625 17.5C25.2706 17.5 26.25 18.4794 26.25 19.6875C26.25 20.8956 25.2706 21.875 24.0625 21.875C22.8544 21.875 21.875 20.8956 21.875 19.6875Z" fill="black"/>
</svg>
