<svg viewBox="0 0 31 31" fill="none" xmlns="http://www.w3.org/2000/svg">
<g id="directions_car_24px">
<path id="icon/maps/directions_car_24px" fill-rule="evenodd" clip-rule="evenodd" d="M24.4383 6.47133C24.18 5.70925 23.4567 5.16675 22.6042 5.16675H8.39583C7.54333 5.16675 6.83292 5.70925 6.56167 6.47133L3.875 14.2084V24.5417C3.875 25.2522 4.45625 25.8334 5.16667 25.8334H6.45833C7.16875 25.8334 7.75 25.2522 7.75 24.5417V23.2501H23.25V24.5417C23.25 25.2522 23.8312 25.8334 24.5417 25.8334H25.8333C26.5437 25.8334 27.125 25.2522 27.125 24.5417V14.2084L24.4383 6.47133ZM8.84787 7.75009H22.1391L23.5341 11.7672H7.45287L8.84787 7.75009ZM6.45833 20.6668H24.5417V14.2084H6.45833V20.6668ZM9.6875 15.5001C8.61745 15.5001 7.75 16.3675 7.75 17.4376C7.75 18.5076 8.61745 19.3751 9.6875 19.3751C10.7576 19.3751 11.625 18.5076 11.625 17.4376C11.625 16.3675 10.7576 15.5001 9.6875 15.5001ZM19.375 17.4376C19.375 16.3675 20.2424 15.5001 21.3125 15.5001C22.3826 15.5001 23.25 16.3675 23.25 17.4376C23.25 18.5076 22.3826 19.3751 21.3125 19.3751C20.2424 19.3751 19.375 18.5076 19.375 17.4376Z" fill="#6A6D72"/>
</g>
</svg>
