<svg width="44" height="44" viewBox="0 0 44 44" fill="none" xmlns="http://www.w3.org/2000/svg">
<path d="M34.3155 15.874L34.3474 12.7862L31.2595 12.7544L31.1801 20.4632L12.6748 20.2726L12.7542 12.5638L9.66634 12.532L9.63454 15.6198L6.54671 15.588L6.49912 20.2089L3.41129 20.1771L3.37949 23.265L6.46731 23.2968L6.41971 27.9177L9.50754 27.9495L9.47573 31.0373L12.5636 31.0692L12.643 23.3604L31.1483 23.551L31.0689 31.2598L34.1567 31.2916L34.1885 28.2037L37.2764 28.2355L37.324 23.6146L40.4118 23.6464L40.4436 20.5586L37.3558 20.5268L37.4034 15.9058L34.3155 15.874Z" fill="black"/>
</svg>
