<svg viewBox="0 0 270 83" fill="none" xmlns="http://www.w3.org/2000/svg">
<path d="M79.6524 63.7657C76.4196 63.7657 73.5695 63.0638 71.1024 61.6601C68.6352 60.2563 66.6784 58.2996 65.2321 55.7898C63.8284 53.2801 63.1265 50.4088 63.1265 47.176C63.1265 43.9431 63.8284 41.0718 65.2321 38.5621C66.6784 36.0523 68.6352 34.0956 71.1024 32.6918C73.5695 31.2881 76.4196 30.5862 79.6524 30.5862C83.6935 30.5862 87.0966 31.6497 89.8615 33.7766C92.6265 35.8609 94.3918 38.7535 95.1575 42.4543H86.5436C86.1182 40.9229 85.2674 39.7318 83.9913 38.8811C82.7577 37.9878 81.2902 37.5411 79.5886 37.5411C77.3341 37.5411 75.4199 38.3919 73.846 40.0934C72.2721 41.7949 71.4852 44.1558 71.4852 47.176C71.4852 50.1961 72.2721 52.557 73.846 54.2585C75.4199 55.96 77.3341 56.8108 79.5886 56.8108C81.2902 56.8108 82.7577 56.3854 83.9913 55.5346C85.2674 54.6839 86.1182 53.4715 86.5436 51.8976H95.1575C94.3918 55.4708 92.6265 58.3421 89.8615 60.5115C87.0966 62.681 83.6935 63.7657 79.6524 63.7657ZM114.402 63.7657C111.339 63.7657 108.574 63.0638 106.107 61.6601C103.683 60.2563 101.747 58.3208 100.301 55.8537C98.8971 53.3439 98.1953 50.4514 98.1953 47.176C98.1953 43.9005 98.9184 41.0292 100.365 38.5621C101.811 36.0523 103.746 34.0956 106.171 32.6918C108.638 31.2881 111.403 30.5862 114.466 30.5862C117.486 30.5862 120.209 31.2881 122.633 32.6918C125.1 34.0956 127.036 36.0523 128.44 38.5621C129.886 41.0292 130.609 43.9005 130.609 47.176C130.609 50.4514 129.886 53.3439 128.44 55.8537C127.036 58.3208 125.1 60.2563 122.633 61.6601C120.166 63.0638 117.422 63.7657 114.402 63.7657ZM114.402 56.6831C116.529 56.6831 118.379 55.8962 119.953 54.3223C121.527 52.7059 122.314 50.3237 122.314 47.176C122.314 44.0282 121.527 41.6673 119.953 40.0934C118.379 38.477 116.55 37.6688 114.466 37.6688C112.297 37.6688 110.425 38.477 108.851 40.0934C107.32 41.6673 106.554 44.0282 106.554 47.176C106.554 50.3237 107.32 52.7059 108.851 54.3223C110.425 55.8962 112.275 56.6831 114.402 56.6831ZM134.721 63V31.3519H141.995L142.761 37.2859C143.909 35.2441 145.462 33.6277 147.419 32.4366C149.418 31.203 151.757 30.5862 154.437 30.5862V39.2001H152.14C150.354 39.2001 148.759 39.4766 147.355 40.0296C145.951 40.5826 144.845 41.5397 144.037 42.9009C143.271 44.2621 142.888 46.155 142.888 48.5797V63H134.721ZM156.829 63V31.3519H164.039L164.677 36.7117C165.656 34.84 167.059 33.3512 168.889 32.2452C170.76 31.1392 172.951 30.5862 175.461 30.5862C179.374 30.5862 182.416 31.8198 184.585 34.287C186.754 36.7542 187.839 40.3699 187.839 45.1341V63H179.672V45.8998C179.672 43.1774 179.119 41.093 178.013 39.6468C176.907 38.2005 175.184 37.4773 172.845 37.4773C170.548 37.4773 168.655 38.2856 167.166 39.902C165.719 41.5184 164.996 43.7729 164.996 46.6655V63H156.829ZM192.459 63V17.0592H200.626V63H192.459ZM221.158 63.7657C217.968 63.7657 215.139 63.0851 212.672 61.7239C210.205 60.3627 208.269 58.4485 206.865 55.9813C205.462 53.5141 204.76 50.664 204.76 47.4312C204.76 44.1558 205.44 41.2419 206.802 38.6897C208.205 36.1374 210.12 34.1594 212.544 32.7556C215.011 31.3094 217.904 30.5862 221.222 30.5862C224.327 30.5862 227.071 31.2668 229.453 32.628C231.835 33.9892 233.686 35.8609 235.004 38.243C236.365 40.5826 237.046 43.1987 237.046 46.0912C237.046 46.5592 237.025 47.0483 236.982 47.5588C236.982 48.0692 236.961 48.601 236.918 49.154H212.863C213.033 51.6211 213.884 53.5566 215.416 54.9604C216.989 56.3641 218.882 57.066 221.094 57.066C222.753 57.066 224.136 56.7044 225.242 55.9813C226.39 55.2156 227.241 54.2372 227.794 53.0462H236.089C235.493 55.0454 234.494 56.8746 233.09 58.5335C231.729 60.15 230.027 61.4261 227.985 62.3619C225.986 63.2978 223.71 63.7657 221.158 63.7657ZM221.222 37.2221C219.223 37.2221 217.457 37.7964 215.926 38.9449C214.395 40.0509 213.416 41.7524 212.991 44.0494H228.751C228.624 41.9651 227.858 40.3061 226.454 39.0725C225.05 37.8389 223.306 37.2221 221.222 37.2221ZM254.265 63C250.947 63 248.289 62.1918 246.29 60.5753C244.29 58.9589 243.291 56.0876 243.291 51.9614V38.1792H237.867V31.3519H243.291L244.248 22.8656H251.458V31.3519H260.008V38.1792H251.458V52.0253C251.458 53.5566 251.777 54.6201 252.415 55.2156C253.096 55.7686 254.244 56.0451 255.861 56.0451H259.817V63H254.265Z" />
<path fill-rule="evenodd" clip-rule="evenodd" d="M25.5 71C39.5833 71 51 59.5833 51 45.5C51 31.4167 39.5833 20 25.5 20C11.4167 20 0 31.4167 0 45.5C0 59.5833 11.4167 71 25.5 71ZM13.4909 46.408V58.26C13.4909 58.5361 13.7148 58.76 13.9909 58.76H20.997C21.2731 58.76 21.497 58.5361 21.497 58.26V51.304C21.497 51.0279 21.7208 50.804 21.997 50.804H28.3872C28.6633 50.804 28.8872 51.0279 28.8872 51.304V58.26C28.8872 58.5361 29.111 58.76 29.3872 58.76H36.3932C36.6693 58.76 36.8932 58.5361 36.8932 58.26V46.408C36.8932 46.1319 37.1171 45.908 37.3932 45.908H40.3124C40.7937 45.908 40.9971 45.2947 40.6112 45.0071L37.0944 42.386C36.9678 42.2916 36.8932 42.143 36.8932 41.9851V33.556C36.8932 33.2799 36.6693 33.056 36.3932 33.056H31.2347C30.9586 33.056 30.7347 33.2799 30.7347 33.556V35.0072C30.7347 35.4379 30.2265 35.6671 29.9037 35.3819L25.5294 31.518C25.3376 31.3486 25.0489 31.3513 24.8604 31.5243L10.1267 45.0395C9.79077 45.3477 10.0088 45.908 10.4647 45.908H12.9909C13.2671 45.908 13.4909 46.1319 13.4909 46.408Z" />
</svg>
