<svg width="21" height="20" viewBox="0 0 21 20" fill="none" xmlns="http://www.w3.org/2000/svg">
<path d="M19.6982 4.08443L16.111 0.478874C15.874 0.243025 15.5532 0.110626 15.2188 0.110626C14.8844 0.110626 14.5636 0.243025 14.3266 0.478874L1.60936 13.1778L0.448246 18.1889C0.408192 18.3721 0.409565 18.5619 0.452265 18.7445C0.494965 18.927 0.577914 19.0978 0.695051 19.2442C0.812189 19.3906 0.960556 19.509 1.12931 19.5908C1.29807 19.6725 1.48296 19.7155 1.67047 19.7167C1.75784 19.7255 1.84588 19.7255 1.93325 19.7167L6.99936 18.5555L19.6982 5.86887C19.9341 5.63183 20.0665 5.31104 20.0665 4.97665C20.0665 4.64226 19.9341 4.32148 19.6982 4.08443ZM6.38825 17.4555L1.63991 18.4517L2.72158 13.795L12.2366 4.31665L15.9032 7.98332L6.38825 17.4555ZM16.7221 7.09721L13.0555 3.43054L15.1821 1.3161L18.7877 4.98276L16.7221 7.09721Z" fill="black"/>
</svg>
