<svg fill="none" xmlns="http://www.w3.org/2000/svg">
<path fill-rule="evenodd" clip-rule="evenodd" d="M7.49967 0.083374C3.46842 0.083374 0.208008 3.34379 0.208008 7.37504C0.208008 12.8438 7.49967 20.9167 7.49967 20.9167C7.49967 20.9167 14.7913 12.8438 14.7913 7.37504C14.7913 3.34379 11.5309 0.083374 7.49967 0.083374ZM2.29118 7.37512C2.29118 4.50012 4.62452 2.16679 7.49952 2.16679C10.3745 2.16679 12.7079 4.50012 12.7079 7.37512C12.7079 10.3751 9.70785 14.8647 7.49952 17.6668C5.33285 14.8855 2.29118 10.3439 2.29118 7.37512ZM4.8954 7.37509C4.8954 5.93685 6.06133 4.77093 7.49957 4.77093C8.42995 4.77093 9.28965 5.26728 9.75484 6.07301C10.22 6.87874 10.22 7.87145 9.75484 8.67718C9.28965 9.48291 8.42995 9.97926 7.49957 9.97926C6.06133 9.97926 4.8954 8.81334 4.8954 7.37509Z" fill="black"/>
</svg>
