<?xml version="1.0" encoding="iso-8859-1"?>
<!-- Generator: Adobe Illustrator 18.0.0, SVG Export Plug-In . SVG Version: 6.00 Build 0)  -->
<!DOCTYPE svg PUBLIC "-//W3C//DTD SVG 1.1//EN" "http://www.w3.org/Graphics/SVG/1.1/DTD/svg11.dtd">
<svg version="1.1" id="Capa_1" xmlns="http://www.w3.org/2000/svg" xmlns:xlink="http://www.w3.org/1999/xlink" x="0px" y="0px"
	 viewBox="0 0 215.29 215.29" style="enable-background:new 0 0 215.29 215.29;" xml:space="preserve">
<path d="M0,162.974l11.17,41.138l41.138,11.17l53.637-53.637l38.246,38.245c6.93,6.93,16.145,10.747,25.945,10.747
	c9.801,0,19.015-3.817,25.945-10.747c14.307-14.306,14.307-37.585,0-51.891l-24.397-24.397c9.333-3.053,17.89-8.262,25.033-15.405
	c16.568-16.568,22.633-40.805,15.826-63.253l-3.631-11.977l-35.27,35.271l-20.979-5.621l-5.62-20.979l35.27-35.269l-11.975-3.632
	c-5.977-1.813-12.183-2.732-18.448-2.732c-16.926,0-32.839,6.591-44.806,18.558c-14.577,14.576-21.046,34.89-17.727,55.052
	l-4.472,4.471L39.326,32.528l-9.108-12.206l-13.751-8.808l-4.268,4.268l-0.227,0.227l-4.268,4.267l8.809,13.751l12.207,9.108
	l45.56,45.56L0,162.974z M130.313,37.157l10.102,37.71l37.711,10.103l22.156-22.157c0.157,12.85-4.811,25.418-14.171,34.779
	c-9.131,9.13-21.275,14.159-34.196,14.159c-3.71,0-7.419-0.425-11.025-1.263l-4.057-0.943L47.85,198.529l-24.456-6.64l-6.64-24.456
	l88.986-88.984l-0.943-4.057c-3.819-16.421,1.001-33.326,12.896-45.22c9.269-9.268,21.673-14.33,34.769-14.161L130.313,37.157z
	 M185.476,158.606c8.458,8.458,8.458,22.22,0,30.678c-4.097,4.097-9.545,6.354-15.339,6.354c-5.794,0-11.242-2.256-15.339-6.354
	l-38.246-38.245l25.118-25.117c3.384,0.551,6.815,0.829,10.246,0.829c0.557,0,1.109-0.026,1.663-0.04L185.476,158.606z
	 M45.979,167.889c3.044,3.045,3.044,7.982,0,11.026c-1.523,1.522-3.518,2.283-5.513,2.284c-1.996,0-3.991-0.762-5.513-2.284
	c-3.044-3.044-3.044-7.98,0-11.026c1.522-1.521,3.519-2.283,5.514-2.282C42.462,165.607,44.457,166.366,45.979,167.889z"/>
<g>
</g>
<g>
</g>
<g>
</g>
<g>
</g>
<g>
</g>
<g>
</g>
<g>
</g>
<g>
</g>
<g>
</g>
<g>
</g>
<g>
</g>
<g>
</g>
<g>
</g>
<g>
</g>
<g>
</g>
</svg>
