<svg width="34" height="34" viewBox="0 0 34 34" fill="none" xmlns="http://www.w3.org/2000/svg">
<path fill-rule="evenodd" clip-rule="evenodd" d="M0.000155468 16.8419L3.08731 19.8878C10.5947 12.2786 22.8998 12.2438 30.5685 19.81L33.5907 16.7469C24.2202 7.50165 9.17352 7.54422 0.000155468 16.8419ZM14.5456 26.5367C13.2599 27.8398 13.2823 29.9467 14.5957 31.2425C15.909 32.5384 18.016 32.5324 19.3018 31.2292C20.5875 29.9261 20.5651 27.8192 19.2517 26.5233C17.9384 25.2275 15.8314 25.2335 14.5456 26.5367ZM9.26162 25.9795L6.17447 22.9336C12.0159 17.013 21.5793 16.9859 27.5464 22.8732L24.5242 25.9363C20.2698 21.7388 13.4265 21.7582 9.26162 25.9795Z" fill="black"/>
</svg>
