<svg viewBox="0 0 27 27" fill="none" xmlns="http://www.w3.org/2000/svg">
<path fill-rule="evenodd" clip-rule="evenodd" d="M9.4338e-06 13.5375L2.48145 15.9857C8.51589 9.8695 18.4066 9.84152 24.5708 15.9232L27 13.4611C19.468 6.02979 7.37353 6.06401 9.4338e-06 13.5375ZM11.6919 21.3301C10.6584 22.3775 10.6764 24.0711 11.7321 25.1126C12.7878 26.1542 14.4814 26.1494 15.5149 25.1019C16.5484 24.0545 16.5304 22.3609 15.4747 21.3194C14.419 20.2778 12.7254 20.2826 11.6919 21.3301ZM7.44431 20.8822L4.96287 18.434C9.65823 13.675 17.3452 13.6532 22.1415 18.3854L19.7123 20.8475C16.2926 17.4736 10.792 17.4892 7.44431 20.8822Z" fill="#6A6D72"/>
</svg>
