<svg width="51" height="51" viewBox="0 0 51 51" fill="none" xmlns="http://www.w3.org/2000/svg">
<path fill-rule="evenodd" clip-rule="evenodd" d="M25.5 51C39.5833 51 51 39.5833 51 25.5C51 11.4167 39.5833 0 25.5 0C11.4167 0 0 11.4167 0 25.5C0 39.5833 11.4167 51 25.5 51ZM13.4909 26.408V38.26C13.4909 38.5361 13.7148 38.76 13.9909 38.76H20.997C21.2731 38.76 21.497 38.5361 21.497 38.26V31.304C21.497 31.0279 21.7208 30.804 21.997 30.804H28.3872C28.6633 30.804 28.8872 31.0279 28.8872 31.304V38.26C28.8872 38.5361 29.111 38.76 29.3872 38.76H36.3932C36.6693 38.76 36.8932 38.5361 36.8932 38.26V26.408C36.8932 26.1319 37.1171 25.908 37.3932 25.908H40.3124C40.7937 25.908 40.9971 25.2947 40.6112 25.0071L37.0944 22.386C36.9678 22.2916 36.8932 22.143 36.8932 21.9851V13.556C36.8932 13.2799 36.6693 13.056 36.3932 13.056H31.2347C30.9586 13.056 30.7347 13.2799 30.7347 13.556V15.0072C30.7347 15.4379 30.2265 15.6671 29.9037 15.3819L25.5294 11.518C25.3376 11.3486 25.0489 11.3513 24.8604 11.5243L10.1267 25.0395C9.79077 25.3477 10.0088 25.908 10.4647 25.908H12.9909C13.2671 25.908 13.4909 26.1319 13.4909 26.408Z" fill="#BF1313"/>
</svg>
